<svg width="769" height="601" viewBox="0 0 769 601" fill="none" xmlns="http://www.w3.org/2000/svg">
<path d="M375 45H366V54H375V45Z" fill="#BAC697"/>
<path d="M339 54H330V63H339V54Z" fill="#BAC697"/>
<path d="M384 54H348V63H384V54Z" fill="#041C03"/>
<path d="M393 54H384V63H393V54Z" fill="#696A6A"/>
<path d="M402 54H393V63H402V54Z" fill="#C0C6B0"/>
<path d="M541 306H191V315H541V306Z" fill="#333333"/>
<path d="M348 63H339V72H348V63Z" fill="#041C03"/>
<path d="M375 63H348V72H375V63Z" fill="#768E60"/>
<path d="M384 63H375V72H384V63Z" fill="#4B692F"/>
<path d="M393 63H384V81H393V63Z" fill="#C0C6B0"/>
<path d="M402 63H393V72H402V63Z" fill="#8E7E26"/>
<path d="M411 63H402V72H411V63Z" fill="#696A6A"/>
<path d="M339 72H330V216H339V72Z" fill="#041C03"/>
<path d="M348 72H339V81H348V72Z" fill="#768E60"/>
<path d="M375 72H348V81H375V72Z" fill="#4B692F"/>
<path d="M384 72H375V81H384V72Z" fill="#385530"/>
<path d="M402 72H393V81H402V72Z" fill="#4C2B1C"/>
<path d="M411 72H402V81H411V72Z" fill="#C0C6B0"/>
<path d="M348 81H339V99H348V81Z" fill="#4B692F"/>
<path d="M357 81H348V108H357V81Z" fill="#385530"/>
<path d="M366 81H357V99H366V81Z" fill="#768E60"/>
<path d="M384 81H366V90H384V81Z" fill="#4B692F"/>
<path d="M393 81H384V90H393V81Z" fill="#385530"/>
<path d="M402 81H393V90H402V81Z" fill="#C0C6B0"/>
<path d="M411 81H402V90H411V81Z" fill="#696A6A"/>
<path d="M330 90H321V99H330V90Z" fill="#BAC697"/>
<path d="M375 90H366V234H375V90Z" fill="#4B692F"/>
<path d="M384 90H375V162H384V90Z" fill="#385530"/>
<path d="M393 90H384V126H393V90Z" fill="#4B692F"/>
<path d="M402 90H393V189H402V90Z" fill="#041C03"/>
<path d="M348 99H339V108H348V99Z" fill="#768E60"/>
<path d="M366 99H357V108H366V99Z" fill="#BAC697"/>
<path d="M411 99H402V108H411V99Z" fill="#BAC697"/>
<path d="M438 99H429V108H438V99Z" fill="#BAC697"/>
<path d="M474 99H465V108H474V99Z" fill="#BAC697"/>
<path d="M366 108H339V135H366V108Z" fill="#4B692F"/>
<path d="M465 108H438V117H465V108Z" fill="#041C03"/>
<path d="M420 117H411V126H420V117Z" fill="#BAC697"/>
<path d="M438 117H429V126H438V117Z" fill="#041C03"/>
<path d="M456 117H438V126H456V117Z" fill="#768E60"/>
<path d="M465 117H456V135H465V117Z" fill="#4B692F"/>
<path d="M474 117H465V126H474V117Z" fill="#041C03"/>
<path d="M249 126H240V135H249V126Z" fill="#BAC697"/>
<path d="M276 126H267V135H276V126Z" fill="#BAC697"/>
<path d="M303 126H294V135H303V126Z" fill="#BAC697"/>
<path d="M330 126H321V135H330V126Z" fill="#BAC697"/>
<path d="M393 126H384V135H393V126Z" fill="#BAC697"/>
<path d="M429 126H420V189H429V126Z" fill="#041C03"/>
<path d="M438 126H429V153H438V126Z" fill="#768E60"/>
<path d="M456 126H438V135H456V126Z" fill="#4B692F"/>
<path d="M474 126H465V162H474V126Z" fill="#4B692F"/>
<path d="M483 126H474V207H483V126Z" fill="#041C03"/>
<path d="M258 135H249V144H258V135Z" fill="#696A6A"/>
<path d="M267 135H258V144H267V135Z" fill="#C0C6B0"/>
<path d="M294 135H267V144H294V135Z" fill="#041C03"/>
<path d="M348 135H339V153H348V135Z" fill="#4B692F"/>
<path d="M357 135H348V189H357V135Z" fill="#385530"/>
<path d="M366 135H357V297H366V135Z" fill="#4B692F"/>
<path d="M393 135H384V198H393V135Z" fill="#4B692F"/>
<path d="M447 135H438V144H447V135Z" fill="#4B692F"/>
<path d="M456 135H447V144H456V135Z" fill="#BAC697"/>
<path d="M465 135H456V180H465V135Z" fill="#385530"/>
<path d="M492 135H483V144H492V135Z" fill="#BAC697"/>
<path d="M258 144H249V153H258V144Z" fill="#C0C6B0"/>
<path d="M267 144H258V153H267V144Z" fill="#8E7E26"/>
<path d="M276 144H267V153H276V144Z" fill="#C0C6B0"/>
<path d="M294 144H276V153H294V144Z" fill="#768E60"/>
<path d="M303 144H294V153H303V144Z" fill="#041C03"/>
<path d="M447 144H438V180H447V144Z" fill="#385530"/>
<path d="M456 144H447V162H456V144Z" fill="#768E60"/>
<path d="M258 153H249V162H258V153Z" fill="#4C2B1C"/>
<path d="M267 153H258V162H267V153Z" fill="#C0C6B0"/>
<path d="M303 153H267V162H303V153Z" fill="#4B692F"/>
<path d="M312 153H303V216H312V153Z" fill="#041C03"/>
<path d="M348 153H339V162H348V153Z" fill="#BAC697"/>
<path d="M420 153H411V162H420V153Z" fill="#BAC697"/>
<path d="M438 153H429V162H438V153Z" fill="#4B692F"/>
<path d="M249 162H240V171H249V162Z" fill="#BAC697"/>
<path d="M258 162H249V234H258V162Z" fill="#041C03"/>
<path d="M267 162H258V189H267V162Z" fill="#768E60"/>
<path d="M276 162H267V171H276V162Z" fill="#4B692F"/>
<path d="M285 162H276V171H285V162Z" fill="#BAC697"/>
<path d="M303 162H285V180H303V162Z" fill="#4B692F"/>
<path d="M348 162H339V288H348V162Z" fill="#4B692F"/>
<path d="M384 162H375V171H384V162Z" fill="#4B692F"/>
<path d="M438 162H429V171H438V162Z" fill="#768E60"/>
<path d="M456 162H447V189H456V162Z" fill="#4B692F"/>
<path d="M474 162H465V171H474V162Z" fill="#BAC697"/>
<path d="M276 171H267V216H276V171Z" fill="#385530"/>
<path d="M285 171H276V243H285V171Z" fill="#4B692F"/>
<path d="M384 171H375V180H384V171Z" fill="#BAC697"/>
<path d="M438 171H429V180H438V171Z" fill="#4B692F"/>
<path d="M474 171H465V189H474V171Z" fill="#4B692F"/>
<path d="M492 171H483V180H492V171Z" fill="#BAC697"/>
<path d="M294 180H285V198H294V180Z" fill="#768E60"/>
<path d="M303 180H294V207H303V180Z" fill="#385530"/>
<path d="M330 180H321V189H330V180Z" fill="#BAC697"/>
<path d="M384 180H375V207H384V180Z" fill="#4B692F"/>
<path d="M438 180H429V189H438V180Z" fill="#BAC697"/>
<path d="M447 180H438V198H447V180Z" fill="#4B692F"/>
<path d="M465 180H456V189H465V180Z" fill="#4B692F"/>
<path d="M267 189H258V216H267V189Z" fill="#4B692F"/>
<path d="M357 189H348V207H357V189Z" fill="#4B692F"/>
<path d="M402 189H393V207H402V189Z" fill="#4B692F"/>
<path d="M420 189H402V198H420V189Z" fill="#041C03"/>
<path d="M438 189H420V207H438V189Z" fill="#4B692F"/>
<path d="M456 189H447V198H456V189Z" fill="#385530"/>
<path d="M465 189H456V198H465V189Z" fill="#C0C6B0"/>
<path d="M474 189H465V198H474V189Z" fill="#696A6A"/>
<path d="M249 198H240V207H249V198Z" fill="#BAC697"/>
<path d="M294 198H285V207H294V198Z" fill="#BAC697"/>
<path d="M393 198H384V207H393V198Z" fill="#385530"/>
<path d="M420 198H402V207H420V198Z" fill="#4B692F"/>
<path d="M447 198H438V207H447V198Z" fill="#385530"/>
<path d="M456 198H447V207H456V198Z" fill="#C0C6B0"/>
<path d="M465 198H456V207H465V198Z" fill="#8E7E26"/>
<path d="M474 198H465V207H474V198Z" fill="#C0C6B0"/>
<path d="M294 207H285V216H294V207Z" fill="#385530"/>
<path d="M303 207H294V225H303V207Z" fill="#4B692F"/>
<path d="M357 207H348V216H357V207Z" fill="#BAC697"/>
<path d="M384 207H375V225H384V207Z" fill="#385530"/>
<path d="M393 207H384V261H393V207Z" fill="#4B692F"/>
<path d="M402 207H393V216H402V207Z" fill="#BAC697"/>
<path d="M411 207H402V225H411V207Z" fill="#4B692F"/>
<path d="M438 207H411V216H438V207Z" fill="#385530"/>
<path d="M456 207H438V216H456V207Z" fill="#4B692F"/>
<path d="M465 207H456V216H465V207Z" fill="#C0C6B0"/>
<path d="M474 207H465V216H474V207Z" fill="#4C2B1C"/>
<path d="M267 216H258V225H267V216Z" fill="#BAC697"/>
<path d="M276 216H267V243H276V216Z" fill="#4B692F"/>
<path d="M294 216H285V252H294V216Z" fill="#4B692F"/>
<path d="M312 216H303V234H312V216Z" fill="#4B692F"/>
<path d="M330 216H312V225H330V216Z" fill="#041C03"/>
<path d="M339 216H330V261H339V216Z" fill="#4B692F"/>
<path d="M357 216H348V261H357V216Z" fill="#385530"/>
<path d="M402 216H393V234H402V216Z" fill="#4B692F"/>
<path d="M447 216H411V225H447V216Z" fill="#4B692F"/>
<path d="M465 216H447V225H465V216Z" fill="#041C03"/>
<path d="M483 216H474V225H483V216Z" fill="#BAC697"/>
<path d="M267 225H258V234H267V225Z" fill="#4B692F"/>
<path d="M303 225H294V234H303V225Z" fill="#385530"/>
<path d="M330 225H312V234H330V225Z" fill="#4B692F"/>
<path d="M384 225H375V234H384V225Z" fill="#4B692F"/>
<path d="M447 225H402V234H447V225Z" fill="#041C03"/>
<path d="M267 234H258V243H267V234Z" fill="#041C03"/>
<path d="M303 234H294V252H303V234Z" fill="#4B692F"/>
<path d="M321 234H303V243H321V234Z" fill="#385530"/>
<path d="M330 234H321V252H330V234Z" fill="#4B692F"/>
<path d="M375 234H366V243H375V234Z" fill="#BAC697"/>
<path d="M384 234H375V288H384V234Z" fill="#385530"/>
<path d="M402 234H393V288H402V234Z" fill="#041C03"/>
<path d="M420 234H411V243H420V234Z" fill="#BAC697"/>
<path d="M456 234H447V243H456V234Z" fill="#BAC697"/>
<path d="M258 243H249V252H258V243Z" fill="#BAC697"/>
<path d="M285 243H267V252H285V243Z" fill="#041C03"/>
<path d="M312 243H303V252H312V243Z" fill="#BAC697"/>
<path d="M321 243H312V252H321V243Z" fill="#4B692F"/>
<path d="M375 243H366V297H375V243Z" fill="#4B692F"/>
<path d="M330 252H285V261H330V252Z" fill="#041C03"/>
<path d="M285 261H276V270H285V261Z" fill="#BAC697"/>
<path d="M339 261H330V288H339V261Z" fill="#041C03"/>
<path d="M357 261H348V270H357V261Z" fill="#4B692F"/>
<path d="M393 261H384V270H393V261Z" fill="#BAC697"/>
<path d="M411 261H402V270H411V261Z" fill="#BAC697"/>
<path d="M330 270H321V279H330V270Z" fill="#BAC697"/>
<path d="M357 270H348V279H357V270Z" fill="#BAC697"/>
<path d="M393 270H384V288H393V270Z" fill="#4B692F"/>
<path d="M357 279H348V297H357V279Z" fill="#4B692F"/>
<path d="M420 279H402V288H420V279Z" fill="#130701"/>
<path d="M339 288H321V297H339V288Z" fill="#130701"/>
<path d="M348 288H339V297H348V288Z" fill="#385530"/>
<path d="M384 288H375V297H384V288Z" fill="#4B692F"/>
<path d="M393 288H384V297H393V288Z" fill="#385530"/>
<path d="M402 288H393V297H402V288Z" fill="#130701"/>
<path d="M420 288H402V297H420V288Z" fill="#8F563B"/>
<path d="M429 288H420V297H429V288Z" fill="#130701"/>
<path d="M321 297H303V306H321V297Z" fill="#130701"/>
<path d="M339 297H321V306H339V297Z" fill="#8F563B"/>
<path d="M348 297H339V306H348V297Z" fill="#130701"/>
<path d="M357 297H348V306H357V297Z" fill="#385530"/>
<path d="M384 297H357V306H384V297Z" fill="#130701"/>
<path d="M393 297H384V306H393V297Z" fill="#041C03"/>
<path d="M411 297H393V315H411V297Z" fill="#4C2B1C"/>
<path d="M429 297H411V306H429V297Z" fill="#8F563B"/>
<path d="M438 297H429V306H438V297Z" fill="#130701"/>
<path d="M303 306H294V315H303V306Z" fill="#130701"/>
<path d="M321 306H303V315H321V306Z" fill="#8F563B"/>
<path d="M339 306H321V315H339V306Z" fill="#4C2B1C"/>
<path d="M348 306H339V315H348V306Z" fill="#8F563B"/>
<path d="M357 306H348V315H357V306Z" fill="#130701"/>
<path d="M384 306H357V315H384V306Z" fill="#8F563B"/>
<path d="M393 306H384V315H393V306Z" fill="#130701"/>
<path d="M429 306H411V315H429V306Z" fill="#130701"/>
<path d="M330 315H303V324H330V315Z" fill="#130701"/>
<path d="M348 315H330V324H348V315Z" fill="#4C2B1C"/>
<path d="M357 315H348V324H357V315Z" fill="#8F563B"/>
<path d="M384 315H357V324H384V315Z" fill="#4C2B1C"/>
<path d="M393 315H384V324H393V315Z" fill="#8F563B"/>
<path d="M411 315H393V324H411V315Z" fill="#130701"/>
<path d="M348 324H330V333H348V324Z" fill="#130701"/>
<path d="M357 324H348V333H357V324Z" fill="#4C2B1C"/>
<path d="M393 324H357V333H393V324Z" fill="#130701"/>
<path d="M77.5518 438V328.942H91.1748V342.565H104.834V356.188H118.458V369.848H132.081V356.188H145.74V342.565H159.363V328.942H172.986V438H145.74V383.471H132.081V397.094H118.458V383.471H104.834V438H77.5518ZM226.158 407.1V391.64H218.417V383.92H210.698V391.64H202.978V407.1H226.158ZM187.518 438V391.64H195.237V383.92H202.978V376.201H226.158V383.92H233.877V391.64H241.597V438H226.158V414.82H202.978V438H187.518ZM253.177 438V376.201H260.896V383.92H268.637V391.64H276.357V399.381H284.076V407.1H291.817V376.201H307.256V438H299.537V430.28H291.817V422.561H284.076V414.82H276.357V407.1H268.637V438H253.177ZM349.736 430.28V422.561H357.476V391.64H349.736V383.92H334.296V430.28H349.736ZM318.836 438V376.201H357.476V383.92H365.196V391.64H372.916V422.561H365.196V430.28H357.476V438H318.836ZM423.135 407.1V391.64H415.395V383.92H407.675V391.64H399.955V407.1H423.135ZM384.495 438V391.64H392.215V383.92H399.955V376.201H423.135V383.92H430.855V391.64H438.575V438H423.135V414.82H399.955V438H384.495ZM465.615 438V430.28H457.874V422.561H450.154V391.64H457.874V383.92H465.615V376.201H496.514V383.92H504.234V391.64H488.794V383.92H473.334V391.64H465.615V422.561H473.334V430.28H488.794V422.561H504.234V430.28H496.514V438H465.615ZM554.454 407.1V391.64H546.713V383.92H538.993V391.64H531.274V407.1H554.454ZM515.813 438V391.64H523.533V383.92H531.274V376.201H554.454V383.92H562.173V391.64H569.893V438H554.454V414.82H531.274V438H515.813ZM620.113 399.381V383.92H596.933V399.381H620.113ZM581.473 438V376.201H627.833V383.92H635.552V399.381H627.833V407.1H635.552V438H620.113V407.1H596.933V438H581.473ZM654.852 438V430.28H647.132V376.201H662.592V430.28H685.772V376.201H701.211V430.28H693.492V438H654.852ZM236.153 558V544.377H222.493V530.754H208.87V476.188H222.493V462.565H236.153V448.942H290.682V462.565H304.305V476.188H277.059V462.565H249.776V476.188H236.153V530.754H249.776V544.377H277.059V510.283H249.776V496.66H304.305V558H236.153ZM357.476 527.1V511.64H349.736V503.92H342.016V511.64H334.296V527.1H357.476ZM318.836 558V511.64H326.556V503.92H334.296V496.201H357.476V503.92H365.196V511.64H372.916V558H357.476V534.82H334.296V558H318.836ZM384.495 558V496.201H392.215V503.92H399.955V511.64H407.675V519.381H415.395V511.64H423.135V503.92H430.855V496.201H438.575V558H423.135V527.1H415.395V534.82H407.675V527.1H399.955V558H384.495ZM450.154 558V496.201H504.234V503.92H465.615V519.381H488.794V527.1H465.615V550.28H504.234V558H450.154ZM523.533 558V550.28H515.813V542.561H531.274V550.28H554.454V527.1H523.533V519.381H515.813V503.92H523.533V496.201H562.173V503.92H569.893V511.64H554.454V503.92H531.274V519.381H562.173V527.1H569.893V550.28H562.173V558H523.533Z" fill="#1E1E1E"/>
<path d="M541 592H191V601H541V592Z" fill="#333333"/>
</svg>
